#define zk_calm2_width 128
#define zk_calm2_height 64
static unsigned char zk_calm2_bits[] = {
   0x00, 0x00, 0x00, 0x00, 0x00, 0x00, 0x00, 0x00, 0x00, 0x00, 0x00, 0x00,
   0x00, 0x80, 0x00, 0x08, 0x00, 0x00, 0x00, 0x00, 0x00, 0x00, 0x00, 0x00,
   0x00, 0x00, 0x00, 0x00, 0x00, 0x40, 0x00, 0x08, 0x00, 0x00, 0x00, 0x00,
   0x00, 0x00, 0x00, 0x00, 0x00, 0x00, 0x00, 0x00, 0x00, 0x40, 0x00, 0x04,
   0x00, 0x00, 0x00, 0x00, 0x00, 0x00, 0x00, 0x00, 0x00, 0x00, 0x00, 0x00,
   0x00, 0x20, 0x00, 0x02, 0x00, 0x00, 0x00, 0x00, 0x00, 0x00, 0x00, 0x00,
   0x00, 0x00, 0x00, 0x00, 0x00, 0x10, 0x00, 0x02, 0x00, 0x00, 0x00, 0x00,
   0x00, 0x00, 0x00, 0x00, 0x00, 0x00, 0x00, 0x00, 0x00, 0x10, 0x00, 0x01,
   0x00, 0x00, 0x00, 0x00, 0x00, 0x00, 0x00, 0x00, 0x00, 0x00, 0x00, 0x00,
   0x00, 0x08, 0x80, 0x00, 0x00, 0x00, 0x00, 0x00, 0x00, 0x00, 0x00, 0x00,
   0x00, 0x00, 0x00, 0x00, 0x00, 0x08, 0x80, 0x00, 0x00, 0x00, 0x00, 0x00,
   0x00, 0x00, 0x00, 0x00, 0x00, 0x00, 0x00, 0x00, 0x00, 0x04, 0x40, 0x00,
   0x00, 0x00, 0x00, 0x00, 0x00, 0x00, 0x00, 0x00, 0x00, 0x00, 0x00, 0x00,
   0x00, 0x04, 0x60, 0x00, 0x00, 0x00, 0x00, 0x00, 0x00, 0x00, 0x00, 0x00,
   0x00, 0x00, 0x00, 0x00, 0x00, 0x02, 0x20, 0x00, 0x00, 0x00, 0x00, 0x00,
   0x00, 0x00, 0x00, 0x00, 0x00, 0x00, 0x00, 0x00, 0x00, 0x02, 0x10, 0x00,
   0x00, 0x00, 0x00, 0x00, 0x00, 0x00, 0x00, 0x00, 0x00, 0x00, 0x00, 0x00,
   0x00, 0x01, 0x10, 0x00, 0x00, 0x00, 0x00, 0x00, 0x00, 0x00, 0x00, 0x00,
   0x00, 0x00, 0x00, 0x00, 0x00, 0x01, 0x08, 0x00, 0x00, 0x00, 0x00, 0x00,
   0x00, 0x00, 0x00, 0x00, 0x00, 0x00, 0x00, 0x00, 0x80, 0x00, 0x04, 0x08,
   0x00, 0x00, 0x00, 0x00, 0x00, 0x00, 0x00, 0x00, 0x00, 0x00, 0x00, 0x00,
   0x80, 0x00, 0x04, 0x06, 0x00, 0x00, 0x00, 0x00, 0x00, 0x00, 0x00, 0x00,
   0x00, 0x00, 0x00, 0x00, 0x40, 0x00, 0x82, 0x03, 0x00, 0x00, 0x00, 0x80,
   0x1f, 0x00, 0x00, 0x00, 0x00, 0x00, 0x00, 0xf8, 0x21, 0x00, 0x63, 0x01,
   0x00, 0x00, 0x00, 0x70, 0x60, 0x00, 0x00, 0x00, 0x00, 0x00, 0x00, 0x07,
   0x2e, 0x00, 0x99, 0x01, 0x00, 0x00, 0x00, 0x0c, 0x80, 0x01, 0x00, 0x00,
   0x00, 0x00, 0xc0, 0x00, 0x18, 0x80, 0x86, 0x00, 0x00, 0x00, 0x00, 0x02,
   0x00, 0x02, 0x00, 0x00, 0x00, 0x00, 0x20, 0x00, 0x20, 0xc0, 0x41, 0x00,
   0x00, 0x00, 0x00, 0x01, 0x00, 0x04, 0x00, 0x00, 0x00, 0x00, 0x10, 0x00,
   0x40, 0x40, 0x40, 0x00, 0x00, 0x00, 0x80, 0x80, 0x07, 0x0c, 0x00, 0x00,
   0x00, 0x00, 0x08, 0x78, 0xc0, 0x00, 0x30, 0x00, 0x00, 0x00, 0x80, 0xe0,
   0x07, 0x08, 0x00, 0x00, 0x00, 0x00, 0x08, 0x7e, 0x80, 0x00, 0x10, 0x00,
   0x00, 0x00, 0x40, 0xf0, 0x03, 0x10, 0x00, 0x00, 0x00, 0x00, 0x04, 0x3f,
   0x00, 0x01, 0x08, 0x00, 0x00, 0x00, 0x40, 0xf8, 0x03, 0x10, 0x00, 0x00,
   0x00, 0x00, 0x84, 0x3f, 0x00, 0x01, 0x08, 0x00, 0x00, 0x00, 0x20, 0xf8,
   0x03, 0x20, 0x00, 0x00, 0x00, 0x00, 0x82, 0x3f, 0x00, 0x02, 0x04, 0x00,
   0x00, 0x00, 0x20, 0xfc, 0x07, 0x21, 0x00, 0x00, 0x00, 0x00, 0xc2, 0x7f,
   0x10, 0x02, 0x02, 0x00, 0x00, 0x00, 0x20, 0xfc, 0x8f, 0x21, 0x00, 0x00,
   0x00, 0x00, 0xc2, 0xff, 0x18, 0x02, 0x03, 0x00, 0x00, 0x00, 0x20, 0xfc,
   0xff, 0x21, 0x00, 0x00, 0x00, 0x00, 0xc2, 0xff, 0x1f, 0x02, 0x01, 0x00,
   0x00, 0x00, 0x20, 0xfc, 0xff, 0x21, 0x00, 0x00, 0x00, 0x00, 0xc2, 0xff,
   0x1f, 0x82, 0x00, 0x00, 0x00, 0x00, 0x20, 0xfc, 0xff, 0x21, 0x00, 0x00,
   0x00, 0x00, 0xc2, 0xff, 0x1f, 0x42, 0x00, 0x00, 0x00, 0x00, 0x20, 0xf8,
   0xff, 0x20, 0x00, 0x00, 0x00, 0x00, 0x82, 0xff, 0x0f, 0x62, 0x00, 0x00,
   0x00, 0x00, 0x40, 0xf8, 0xff, 0x10, 0x00, 0x00, 0x00, 0x00, 0x84, 0xff,
   0x0f, 0x21, 0x00, 0x00, 0x00, 0x00, 0x40, 0xf0, 0x7f, 0x10, 0x00, 0x00,
   0x00, 0x00, 0x04, 0xff, 0x07, 0x11, 0x00, 0x00, 0x00, 0x00, 0x80, 0xe0,
   0x3f, 0x08, 0x00, 0x00, 0x00, 0x00, 0x08, 0xfe, 0x83, 0x11, 0x00, 0x00,
   0x00, 0x00, 0x80, 0x80, 0x07, 0x08, 0x00, 0x00, 0x00, 0x00, 0x08, 0xf8,
   0x80, 0x08, 0x00, 0x00, 0x00, 0x00, 0x00, 0x01, 0x00, 0x04, 0x00, 0x00,
   0x00, 0x00, 0x10, 0x00, 0x40, 0x04, 0x00, 0x00, 0x00, 0x00, 0x00, 0x02,
   0x00, 0x03, 0x00, 0x00, 0x00, 0x00, 0x20, 0x00, 0x30, 0x02, 0x00, 0x00,
   0x00, 0x00, 0x00, 0x0c, 0x00, 0x01, 0x00, 0x00, 0x00, 0x00, 0xc0, 0x00,
   0x10, 0x03, 0x00, 0x00, 0x00, 0x00, 0x00, 0x30, 0xf0, 0x00, 0x08, 0x00,
   0x00, 0x08, 0x00, 0x03, 0x0f, 0x01, 0x00, 0x00, 0x00, 0x00, 0x00, 0xc0,
   0x1f, 0x00, 0x08, 0x00, 0x00, 0x08, 0x00, 0xfc, 0x82, 0x00, 0x00, 0x00,
   0x00, 0x00, 0x00, 0x00, 0x00, 0x00, 0x08, 0x00, 0x00, 0x08, 0x00, 0x00,
   0x42, 0x00, 0x00, 0x00, 0x00, 0x00, 0x00, 0x00, 0x00, 0x00, 0x10, 0x00,
   0x00, 0x08, 0x00, 0x00, 0x42, 0x00, 0x00, 0x00, 0x00, 0x00, 0x00, 0x00,
   0x00, 0x00, 0x10, 0x00, 0x00, 0x04, 0x00, 0x00, 0x21, 0x00, 0x00, 0x00,
   0x00, 0x00, 0x00, 0x00, 0x00, 0x00, 0x10, 0x00, 0x00, 0x04, 0x00, 0x00,
   0x31, 0x00, 0x00, 0x00, 0x00, 0x00, 0x00, 0x00, 0x00, 0x00, 0x20, 0x00,
   0x00, 0x02, 0x00, 0x00, 0x09, 0x00, 0x00, 0x00, 0x00, 0x00, 0x00, 0x00,
   0x00, 0x00, 0x40, 0x00, 0x00, 0x02, 0x00, 0x80, 0x08, 0x00, 0x00, 0x00,
   0x00, 0x00, 0x00, 0x00, 0x00, 0x00, 0x40, 0x00, 0x80, 0x01, 0x00, 0x80,
   0x04, 0x00, 0x00, 0x00, 0x00, 0x00, 0x00, 0x00, 0x00, 0x00, 0x80, 0x01,
   0x80, 0x00, 0x00, 0x80, 0x06, 0x00, 0x00, 0x00, 0x00, 0x00, 0x00, 0x00,
   0x00, 0x00, 0x00, 0x03, 0x60, 0x00, 0x00, 0x40, 0x02, 0x00, 0x00, 0x00,
   0x00, 0x00, 0x00, 0x00, 0x00, 0x00, 0x00, 0x1c, 0x18, 0x00, 0x00, 0x40,
   0x01, 0x00, 0x00, 0x00, 0x00, 0x00, 0x00, 0x00, 0x00, 0x00, 0x00, 0xe0,
   0x07, 0x00, 0x00, 0xc0, 0x00, 0x00, 0x00, 0x00, 0x00, 0x00, 0x00, 0x00,
   0x00, 0x00, 0x00, 0x00, 0x00, 0x00, 0x00, 0xe0, 0x00, 0x00, 0x00, 0x00,
   0x00, 0x00, 0x00, 0x00, 0x00, 0x00, 0x00, 0x00, 0x00, 0x00, 0x00, 0x60,
   0x00, 0x00, 0x00, 0x00, 0x00, 0x00, 0x00, 0x00, 0x00, 0x00, 0x00, 0x00,
   0x00, 0x00, 0x00, 0x20, 0x00, 0x00, 0x00, 0x00, 0x00, 0x00, 0x00, 0x00,
   0x00, 0x00, 0x00, 0x00, 0x00, 0x00, 0x00, 0x30, 0x00, 0x00, 0x00, 0x00,
   0x00, 0x00, 0x00, 0x00, 0x00, 0x00, 0x00, 0x00, 0x00, 0x00, 0x00, 0x10,
   0x00, 0x00, 0x00, 0x00, 0x00, 0x00, 0x00, 0x00, 0x00, 0x00, 0x00, 0x00,
   0x00, 0x00, 0x00, 0x00, 0x00, 0x00, 0x00, 0x00, 0x00, 0x00, 0x00, 0x00,
   0x00, 0x00, 0x00, 0x00, 0x00, 0x00, 0x00, 0x00, 0x00, 0x00, 0x00, 0x00,
   0x00, 0x00, 0x00, 0x00, 0x00, 0x00, 0x00, 0x00, 0x00, 0x00, 0x00, 0x00,
   0x00, 0x00, 0x00, 0x00, 0x00, 0x00, 0x00, 0x00, 0x00, 0x00, 0x00, 0x00,
   0x00, 0x00, 0x00, 0x00, 0x00, 0x00, 0x00, 0x00, 0x00, 0x00, 0x00, 0x00,
   0x00, 0x00, 0x00, 0x00, 0x00, 0x00, 0x00, 0x00, 0x00, 0x00, 0x00, 0x00,
   0x00, 0x00, 0x00, 0x00, 0x00, 0x00, 0x00, 0x00, 0x00, 0x00, 0x00, 0x00,
   0x00, 0x00, 0x00, 0x00 };
